<svg xmlns="http://www.w3.org/2000/svg" height="18" fill="#fff" class="w-full sm:w-auto" viewBox="0 0 182 28"><path d="M36.454 15.17c.223 2.616 2.199 4.677 4.788 4.677 1.949 0 3.451-1.086 4.175-2.256l1.42 1.17c-1.532 1.95-3.452 2.756-5.595 2.756-3.869 0-6.735-2.922-6.735-6.848 0-3.925 2.866-6.847 6.569-6.847 3.951.028 6.234 2.95 6.234 6.513v.836H36.455v-.001Zm8.85-1.503c0-2.477-1.587-4.175-4.23-4.175-2.394 0-4.564 2.032-4.564 4.175h8.796-.001Z"/><path d="m52.378 14.223-4.732-6.068h2.505l3.617 4.87 3.452-4.87h2.283l-4.537 6.068 5.456 6.959h-2.505l-4.37-5.706-4.203 5.706h-2.339l5.373-6.959ZM70.466 11.217c-.613-.947-1.81-1.726-3.256-1.726-3.034-.055-4.899 2.199-4.899 5.177 0 2.98 1.866 5.233 4.899 5.178 1.447 0 2.645-.78 3.256-1.726l1.502 1.14a6.306 6.306 0 0 1-4.76 2.254c-4.258.056-6.903-2.922-6.903-6.847 0-3.926 2.645-6.903 6.903-6.848a6.306 6.306 0 0 1 4.76 2.254l-1.502 1.141v.003ZM73.804.139h1.836v10.103h.056c.806-1.42 2.645-2.421 4.37-2.421 3.312 0 4.899 1.865 4.899 5.094v8.267h-1.837v-7.21c0-2.894-.806-4.481-3.534-4.481-.39 0-3.952.25-3.952 5.01v6.68h-1.837V.14h-.001ZM95.93 13.193v-.334c0-2.255-1.086-3.368-3.342-3.368-1.531 0-2.866.53-3.98 1.53l-1.114-1.308c1.198-1.226 3.062-1.892 5.512-1.892 2.449 0 4.76 1.447 4.76 4.62v5.817c0 1.002.11 2.228.221 2.924h-1.78c-.112-.64-.167-1.42-.167-2.116h-.055c-1.058 1.726-2.505 2.45-4.593 2.45-2.31 0-4.481-1.281-4.481-3.814 0-4.23 4.982-4.509 8.1-4.509h.918Zm-.948 1.503c-1.864 0-6.068.14-6.068 2.755 0 1.726 1.587 2.394 3.062 2.394 2.672 0 3.952-1.893 3.952-4.202v-.947h-.947.001ZM102.14 8.155c.084.695.084 1.391.084 2.087h.055c.807-1.42 2.645-2.421 4.371-2.421 3.311 0 4.898 1.865 4.898 5.094v8.267h-1.836v-7.21c0-2.894-.807-4.481-3.535-4.481-.39 0-3.952.25-3.952 5.01v6.68h-1.837V11.022c0-.695-.083-1.92-.138-2.866h1.892l-.002-.001ZM114.916 23.797c1.086 1.447 2.895 2.394 4.982 2.394 3.73 0 5.067-2.31 5.067-5.122v-2.338h-.056c-1.168 1.753-2.979 2.45-4.871 2.45-3.758 0-6.79-2.812-6.79-6.625s2.783-6.735 6.624-6.735c1.559 0 3.535.472 5.039 2.504h.055v-2.17h1.837v12.914c0 2.84-1.141 6.791-6.987 6.791-2.589 0-4.592-.834-6.262-2.616l1.364-1.447h-.002Zm5.178-4.286c2.672 0 5.038-2.004 4.926-5.01 0-2.727-1.864-5.01-4.926-5.01-2.728 0-4.843 2.283-4.843 5.01 0 2.729 2.115 5.01 4.843 5.01ZM130.502 15.17c.222 2.616 2.199 4.677 4.788 4.677 1.949 0 3.451-1.086 4.175-2.256l1.419 1.17c-1.53 1.95-3.451 2.756-5.594 2.756-3.869 0-6.735-2.922-6.735-6.848 0-3.925 2.866-6.847 6.569-6.847 3.951.028 6.234 2.95 6.234 6.513v.836h-10.854l-.002-.001Zm8.851-1.503c0-2.477-1.587-4.175-4.231-4.175-2.394 0-4.564 2.032-4.564 4.175h8.796-.001ZM154.413 19.553h-.054c-.887 1.397-2.499 1.961-4.139 1.961-2.445 0-4.649-1.397-4.649-4.03 0-4.515 5.484-4.597 8.842-4.597 0-1.424-1.182-2.338-2.579-2.338-1.317 0-2.419.59-3.279 1.559l-2.149-2.204c1.477-1.397 3.628-2.096 5.751-2.096 4.703 0 5.967 2.393 5.967 6.746v6.639h-3.709v-1.64h-.002Zm-.994-4.085c-1.236 0-3.978.108-3.978 1.88 0 .968 1.022 1.426 1.909 1.426 1.586 0 3.063-.833 3.063-2.445v-.86h-.994v-.001ZM159.843 8.131h4.031v2.096h.054c.859-1.586 1.989-2.419 3.762-2.419.457 0 .967.026 1.343.135v3.681c-.564-.16-1.129-.269-1.72-.269-3.064 0-3.441 1.774-3.441 4.382v5.456h-4.031V8.13h.002ZM180.913 11.357h-3.547v4.354c0 1.397.161 2.418 1.909 2.418.43 0 1.291-.054 1.64-.375v3.36c-.887.323-1.881.403-2.822.403-2.688 0-4.758-1.102-4.758-3.95v-6.209h-2.579V8.133h2.579v-3.87h4.031v3.87h3.547v3.225-.001ZM16.782.139H2.329C1.109.139.116 1.13.116 2.35v14.42s0 2.212 1.965 2.212h1.996c1.994 0 1.972-2.179 1.972-2.179l.035-10.632 10.665-.036s2.212 0 2.212-1.986V2.132c0-2.017-2.179-1.995-2.179-1.995V.14ZM11.048 27.861H25.5c1.22 0 2.212-.992 2.212-2.212V11.23s0-2.212-1.964-2.212h-1.996c-1.995 0-1.973 2.179-1.973 2.179l-.034 10.632-10.665.036s-2.212 0-2.212 1.986v2.018c0 2.017 2.179 1.995 2.179 1.995v-.002Z"/></svg>